# xmcd
#
# Track frame offsets:
#	150
#	17452
#	35851
#	49146
#	65488
#	79424
#	93060
#	105339
#	122209
#	138866
#	151635
#	175070
#	189918
#	202604
#
# Disc length: 2944 seconds
#
# Revision: 1
# Processed by: cddbd v1.4PL0 Copyright (c) Steve Scherf et al.
# Submitted via: audiograbber 1.81.03
#
DISCID=a40b7e0e
DTITLE=Mick Hamilton - Alone At Last
DYEAR=1900
DGENRE=Country
TTITLE0=Gone, Gone, Gone
TTITLE1=Friend Of Mine
TTITLE2=Heart Against The Miles
TTITLE3=There Was A Time
TTITLE4=Eyes Of A Woman
TTITLE5=Two Women
TTITLE6=Just One Moment In Time
TTITLE7=Copper Canyon Railroad
TTITLE8=You Can't Sing The Blues (If You're Green)
TTITLE9=Wilderness Trail
TTITLE10=She Belongs To Me
TTITLE11=This Man
TTITLE12=Sent Here To Die
TTITLE13=Salt Of The Earth
EXTD=
EXTT0=
EXTT1=
EXTT2=
EXTT3=
EXTT4=
EXTT5=
EXTT6=
EXTT7=
EXTT8=
EXTT9=
EXTT10=
EXTT11=
EXTT12=
EXTT13=
PLAYORDER=
